<svg width="41" height="41" viewBox="0 0 41 41" fill="none" xmlns="http://www.w3.org/2000/svg">
    <path d="M25.2117 14.9479C29.9292 23.1189 29.4484 32.2277 24.1371 35.2942C18.8259 38.3606 10.6968 34.2239 5.97927 26.0521C1.26171 17.8803 1.7426 8.77228 7.05381 5.70583C12.365 2.63937 20.495 6.77695 25.2117 14.9479Z" stroke="#CDCDCD" stroke-width="4" stroke-linecap="round" stroke-linejoin="round"/>
    <path d="M15.5955 14.9479C10.8779 23.1189 11.3588 32.2277 16.67 35.2942C21.9812 38.3606 30.1112 34.223 34.8288 26.0521C39.5463 17.8811 39.0654 8.77228 33.7534 5.70583C28.4439 2.63937 20.313 6.77695 15.5955 14.9479Z" stroke="#CDCDCD" stroke-width="4" stroke-linecap="round" stroke-linejoin="round"/>
    <path d="M20.2891 8.83549C22.1213 10.4652 23.8159 12.5298 25.2116 14.9479C29.9292 23.1189 29.4483 32.2277 24.1371 35.2942C23.0284 35.9348 21.7967 36.2611 20.4983 36.3021" stroke="#CDCDCD" stroke-width="4" stroke-linecap="round" stroke-linejoin="round"/>
</svg>